M48
; DRILL file {KiCad (5.1.2)-1} date 7/7/2019 10:25:12 PM
; FORMAT={-:-/ absolute / inch / decimal}
; #@! TF.CreationDate,2019-07-07T22:25:12+08:00
; #@! TF.GenerationSoftware,Kicad,Pcbnew,(5.1.2)-1
; #@! TF.FileFunction,NonPlated,1,2,NPTH
FMAT,2
INCH
T1C0.0256
T2C0.0669
T3C0.1181
T4C0.1201
T5C0.1575
%
G90
G05
T1
X7.0909Y-2.1161
X7.3185Y-2.1161
T2
X5.5087Y-5.3346
X5.9087Y-5.3346
X4.3866Y-3.0906
X4.7866Y-3.0906
X3.6386Y-4.5866
X4.0386Y-4.5866
X11.1189Y-5.3346
X11.5189Y-5.3346
X11.1189Y-2.3425
X11.5189Y-2.3425
X5.8827Y-4.5866
X6.2827Y-4.5866
X10.3709Y-3.8386
X10.7709Y-3.8386
X10.3709Y-5.3346
X10.7709Y-5.3346
X10.3709Y-2.3425
X10.7709Y-2.3425
X5.8827Y-2.3425
X6.2827Y-2.3425
X10.3709Y-4.5866
X10.7709Y-4.5866
X8.1268Y-3.8386
X8.5268Y-3.8386
X8.1268Y-5.3346
X8.5268Y-5.3346
X8.8748Y-3.0906
X9.2748Y-3.0906
X6.6307Y-3.8386
X7.0307Y-3.8386
X7.3787Y-2.3425
X7.7787Y-2.3425
X7.3787Y-5.3346
X7.7787Y-5.3346
X11.1189Y-3.8386
X11.5189Y-3.8386
X5.8827Y-3.0906
X6.2827Y-3.0906
X5.1346Y-2.3425
X5.5346Y-2.3425
X2.8906Y-5.3346
X3.2906Y-5.3346
X2.8906Y-4.5866
X3.2906Y-4.5866
X7.3787Y-3.0906
X7.7787Y-3.0906
X2.1425Y-5.3346
X2.5425Y-5.3346
X3.6386Y-3.8386
X4.0386Y-3.8386
X6.6307Y-4.5866
X7.0307Y-4.5866
X4.3866Y-4.5866
X4.7866Y-4.5866
X3.6386Y-3.0906
X4.0386Y-3.0906
X2.1425Y-2.3425
X2.5425Y-2.3425
X9.6228Y-3.8386
X10.0228Y-3.8386
X11.1189Y-3.0906
X11.5189Y-3.0906
X4.3866Y-2.3425
X4.7866Y-2.3425
X5.8827Y-5.3346
X6.2827Y-5.3346
X8.8748Y-3.8386
X9.2748Y-3.8386
X9.6228Y-5.3346
X10.0228Y-5.3346
X9.6228Y-2.3425
X10.0228Y-2.3425
X2.8906Y-2.3425
X3.2906Y-2.3425
X8.1268Y-4.5866
X8.5268Y-4.5866
X2.1425Y-3.8386
X2.5425Y-3.8386
X2.8906Y-3.0906
X3.2906Y-3.0906
X6.6307Y-2.3425
X7.0307Y-2.3425
X11.1189Y-4.5866
X11.5189Y-4.5866
X5.8827Y-3.8386
X6.2827Y-3.8386
X10.3709Y-3.0906
X10.7709Y-3.0906
X3.6386Y-2.3425
X4.0386Y-2.3425
X3.6386Y-5.3346
X4.0386Y-5.3346
X4.3866Y-3.8386
X4.7866Y-3.8386
X6.6307Y-3.0906
X7.0307Y-3.0906
X9.6228Y-4.5866
X10.0228Y-4.5866
X6.6307Y-5.3346
X7.0307Y-5.3346
X8.5008Y-5.3346
X8.9008Y-5.3346
X5.1346Y-3.0906
X5.5346Y-3.0906
X11.8669Y-3.8386
X12.2669Y-3.8386
X11.8669Y-5.3346
X12.2669Y-5.3346
X11.8669Y-2.3425
X12.2669Y-2.3425
X11.8669Y-4.5866
X12.2669Y-4.5866
X2.8906Y-3.8386
X3.2906Y-3.8386
X9.6228Y-3.0906
X10.0228Y-3.0906
X8.8748Y-4.5866
X9.2748Y-4.5866
X2.1425Y-4.5866
X2.5425Y-4.5866
X8.8748Y-5.3346
X9.2748Y-5.3346
X8.8748Y-2.3425
X9.2748Y-2.3425
X5.1346Y-4.5866
X5.5346Y-4.5866
X11.8669Y-3.0906
X12.2669Y-3.0906
X2.1425Y-3.0906
X2.5425Y-3.0906
X8.1268Y-2.3425
X8.5268Y-2.3425
X5.1346Y-5.3346
X5.5346Y-5.3346
X5.1346Y-3.8386
X5.5346Y-3.8386
X8.1268Y-3.0906
X8.5268Y-3.0906
X4.3866Y-5.3346
X4.7866Y-5.3346
X7.3787Y-3.8386
X7.7787Y-3.8386
X7.3787Y-4.5866
X7.7787Y-4.5866
T3
X4.4366Y-4.4866
X4.6866Y-4.3866
X3.6886Y-2.9906
X3.9386Y-2.8906
X2.1925Y-2.2425
X2.4425Y-2.1425
X9.6728Y-3.7386
X9.9228Y-3.6386
X11.1689Y-2.9906
X11.4189Y-2.8906
X4.4366Y-2.2425
X4.6866Y-2.1425
X5.9327Y-5.2346
X6.1827Y-5.1346
X8.9248Y-3.7386
X9.1748Y-3.6386
X9.6728Y-5.2346
X9.9228Y-5.1346
X9.6728Y-2.2425
X9.9228Y-2.1425
X2.9406Y-2.2425
X3.1906Y-2.1425
X8.1768Y-4.4866
X8.4268Y-4.3866
X2.1925Y-3.7386
X2.4425Y-3.6386
X2.9406Y-2.9906
X3.1906Y-2.8906
X6.7307Y-2.5425
X6.9807Y-2.4425
X11.1689Y-4.4866
X11.4189Y-4.3866
X5.9327Y-3.7386
X6.1827Y-3.6386
X10.4209Y-2.9906
X10.6709Y-2.8906
X3.6886Y-2.2425
X3.9386Y-2.1425
X3.6886Y-5.2346
X3.9386Y-5.1346
X4.4366Y-3.7386
X4.6866Y-3.6386
X6.6807Y-2.9906
X6.9307Y-2.8906
X9.6728Y-4.4866
X9.9228Y-4.3866
X6.6807Y-5.2346
X6.9307Y-5.1346
X8.6008Y-5.5346
X8.8508Y-5.4346
X5.1846Y-2.9906
X5.4346Y-2.8906
X11.9169Y-3.7386
X12.1669Y-3.6386
X11.9169Y-5.2346
X12.1669Y-5.1346
X11.9169Y-2.2425
X12.1669Y-2.1425
X11.9169Y-4.4866
X12.1669Y-4.3866
X2.9406Y-3.7386
X3.1906Y-3.6386
X9.6728Y-2.9906
X9.9228Y-2.8906
X8.9248Y-4.4866
X9.1748Y-4.3866
X2.1925Y-4.4866
X2.4425Y-4.3866
X8.9248Y-5.2346
X9.1748Y-5.1346
X8.9248Y-2.2425
X9.1748Y-2.1425
X5.1846Y-4.4866
X5.4346Y-4.3866
X11.9169Y-2.9906
X12.1669Y-2.8906
X2.1925Y-2.9906
X2.4425Y-2.8906
X8.1768Y-2.2425
X8.4268Y-2.1425
X5.1846Y-5.2346
X5.4346Y-5.1346
X5.1846Y-3.7386
X5.4346Y-3.6386
X8.1768Y-2.9906
X8.4268Y-2.8906
X4.4366Y-5.2346
X4.6866Y-5.1346
X7.4287Y-3.7386
X7.6787Y-3.6386
X7.4287Y-4.4866
X7.6787Y-4.3866
X5.6087Y-5.5346
X5.8587Y-5.4346
X4.4366Y-2.9906
X4.6866Y-2.8906
X3.6886Y-4.4866
X3.9386Y-4.3866
X11.1689Y-5.2346
X11.4189Y-5.1346
X11.1689Y-2.2425
X11.4189Y-2.1425
X5.9327Y-4.4866
X6.1827Y-4.3866
X10.4209Y-3.7386
X10.6709Y-3.6386
X10.4209Y-5.2346
X10.6709Y-5.1346
X10.4209Y-2.2425
X10.6709Y-2.1425
X5.9327Y-2.2425
X6.1827Y-2.1425
X10.4209Y-4.4866
X10.6709Y-4.3866
X8.1768Y-3.7386
X8.4268Y-3.6386
X8.1768Y-5.2346
X8.4268Y-5.1346
X8.9248Y-2.9906
X9.1748Y-2.8906
X6.6807Y-3.7386
X6.9307Y-3.6386
X7.4787Y-2.5425
X7.7287Y-2.4425
X7.4287Y-5.2346
X7.6787Y-5.1346
X11.1689Y-3.7386
X11.4189Y-3.6386
X5.9327Y-2.9906
X6.1827Y-2.8906
X5.1846Y-2.2425
X5.4346Y-2.1425
X2.9406Y-5.2346
X3.1906Y-5.1346
X2.9406Y-4.4866
X3.1906Y-4.3866
X7.4287Y-2.9906
X7.6787Y-2.8906
X2.1925Y-5.2346
X2.4425Y-5.1346
X3.6886Y-3.7386
X3.9386Y-3.6386
X6.6807Y-4.4866
X6.9307Y-4.3866
T4
X8.2323Y-5.6102
X9.1693Y-5.6102
X5.2402Y-5.6102
X6.1772Y-5.6102
T5
X5.2402Y-5.0102
X5.7087Y-5.3346
X6.1772Y-5.0102
X4.5866Y-3.0906
X3.8386Y-4.5866
X11.3189Y-5.3346
X11.3189Y-2.3425
X6.0827Y-4.5866
X10.5709Y-3.8386
X10.5709Y-5.3346
X10.5709Y-2.3425
X6.0827Y-2.3425
X10.5709Y-4.5866
X8.3268Y-3.8386
X8.3268Y-5.3346
X9.0748Y-3.0906
X6.8307Y-3.8386
X7.5787Y-2.3425
X7.5787Y-5.3346
X11.3189Y-3.8386
X6.0827Y-3.0906
X5.3346Y-2.3425
X3.0906Y-5.3346
X3.0906Y-4.5866
X7.5787Y-3.0906
X2.3425Y-5.3346
X3.8386Y-3.8386
X6.8307Y-4.5866
X4.5866Y-4.5866
X3.8386Y-3.0906
X2.3425Y-2.3425
X9.8228Y-3.8386
X11.3189Y-3.0906
X4.5866Y-2.3425
X6.0827Y-5.3346
X9.0748Y-3.8386
X9.8228Y-5.3346
X9.8228Y-2.3425
X3.0906Y-2.3425
X8.3268Y-4.5866
X2.3425Y-3.8386
X3.0906Y-3.0906
X6.8307Y-2.3425
X11.3189Y-4.5866
X6.0827Y-3.8386
X10.5709Y-3.0906
X3.8386Y-2.3425
X3.8386Y-5.3346
X4.5866Y-3.8386
X6.8307Y-3.0906
X9.8228Y-4.5866
X6.8307Y-5.3346
X8.2323Y-5.0102
X8.7008Y-5.3346
X9.1693Y-5.0102
X5.3346Y-3.0906
X12.0669Y-3.8386
X12.0669Y-5.3346
X12.0669Y-2.3425
X12.0669Y-4.5866
X3.0906Y-3.8386
X9.8228Y-3.0906
X9.0748Y-4.5866
X2.3425Y-4.5866
X9.0748Y-5.3346
X9.0748Y-2.3425
X5.3346Y-4.5866
X12.0669Y-3.0906
X2.3425Y-3.0906
X8.3268Y-2.3425
X5.3346Y-5.3346
X5.3346Y-3.8386
X8.3268Y-3.0906
X4.5866Y-5.3346
X7.5787Y-3.8386
X7.5787Y-4.5866
T0
M30
