M48
; DRILL file {KiCad (5.1.4)-1} date 11/3/2019 9:16:31 PM
; FORMAT={-:-/ absolute / inch / decimal}
; #@! TF.CreationDate,2019-11-03T21:16:31+08:00
; #@! TF.GenerationSoftware,Kicad,Pcbnew,(5.1.4)-1
; #@! TF.FileFunction,NonPlated,1,2,NPTH
FMAT,2
INCH
T1C0.0256
T2C0.0669
T3C0.1201
T4C0.1575
%
G90
G05
T1
X10.8311Y-2.0177
X11.0587Y-2.0177
T2
X9.6228Y-2.3425
X10.0228Y-2.3425
X2.1425Y-4.5866
X2.5425Y-4.5866
X4.3866Y-3.0906
X4.7866Y-3.0906
X6.6307Y-5.3346
X7.0307Y-5.3346
X11.1189Y-4.5866
X11.5189Y-4.5866
X8.1268Y-4.5866
X8.5268Y-4.5866
X5.1346Y-2.3425
X5.5346Y-2.3425
X6.6307Y-4.5866
X7.0307Y-4.5866
X8.1268Y-3.8386
X8.5268Y-3.8386
X2.1425Y-3.0906
X2.5425Y-3.0906
X4.3866Y-4.5866
X4.7866Y-4.5866
X4.3866Y-3.8386
X4.7866Y-3.8386
X10.3709Y-2.3425
X10.7709Y-2.3425
X5.1346Y-5.3346
X5.5346Y-5.3346
X2.8906Y-3.8386
X3.2906Y-3.8386
X7.0047Y-5.3346
X7.4047Y-5.3346
X7.3787Y-3.0906
X7.7787Y-3.0906
X2.8906Y-5.3346
X3.2906Y-5.3346
X5.1346Y-3.8386
X5.5346Y-3.8386
X5.1346Y-3.0906
X5.5346Y-3.0906
X8.1268Y-5.3346
X8.5268Y-5.3346
X11.1189Y-3.0906
X11.5189Y-3.0906
X11.1189Y-2.3425
X11.5189Y-2.3425
X9.6228Y-3.8386
X10.0228Y-3.8386
X8.8748Y-2.3425
X9.2748Y-2.3425
X3.6386Y-2.3425
X4.0386Y-2.3425
X9.6228Y-4.5866
X10.0228Y-4.5866
X7.3787Y-4.5866
X7.7787Y-4.5866
X5.8827Y-2.3425
X6.2827Y-2.3425
X9.6228Y-5.3346
X10.0228Y-5.3346
X5.8827Y-4.5866
X6.2827Y-4.5866
X3.6386Y-3.8386
X4.0386Y-3.8386
X7.3787Y-2.3425
X7.7787Y-2.3425
X3.6386Y-4.5866
X4.0386Y-4.5866
X11.1189Y-3.8386
X11.5189Y-3.8386
X8.8748Y-3.0906
X9.2748Y-3.0906
X11.8669Y-5.3346
X12.2669Y-5.3346
X3.6386Y-5.3346
X4.0386Y-5.3346
X11.8669Y-3.8386
X12.2669Y-3.8386
X2.1425Y-2.3425
X2.5425Y-2.3425
X6.6307Y-3.0906
X7.0307Y-3.0906
X10.3709Y-5.3346
X10.7709Y-5.3346
X11.8669Y-4.5866
X12.2669Y-4.5866
X2.1425Y-3.8386
X2.5425Y-3.8386
X3.6386Y-3.0906
X4.0386Y-3.0906
X9.6228Y-3.0906
X10.0228Y-3.0906
X11.8669Y-2.3425
X12.2669Y-2.3425
X8.8748Y-3.8386
X9.2748Y-3.8386
X8.1268Y-2.3425
X8.5268Y-2.3425
X7.3787Y-5.3346
X7.7787Y-5.3346
X2.1425Y-5.3346
X2.5425Y-5.3346
X5.5087Y-5.3346
X5.9087Y-5.3346
X8.8748Y-4.5866
X9.2748Y-4.5866
X4.3866Y-2.3425
X4.7866Y-2.3425
X10.3709Y-4.5866
X10.7709Y-4.5866
X5.8827Y-5.3346
X6.2827Y-5.3346
X5.1346Y-4.5866
X5.5346Y-4.5866
X5.8827Y-3.8386
X6.2827Y-3.8386
X6.6307Y-2.3425
X7.0307Y-2.3425
X6.6307Y-3.8386
X7.0307Y-3.8386
X2.8906Y-4.5866
X3.2906Y-4.5866
X7.3787Y-3.8386
X7.7787Y-3.8386
X2.8906Y-2.3425
X3.2906Y-2.3425
X8.1268Y-3.0906
X8.5268Y-3.0906
X11.1189Y-5.3346
X11.5189Y-5.3346
X4.3866Y-5.3346
X4.7866Y-5.3346
X10.3709Y-3.8386
X10.7709Y-3.8386
X5.8827Y-3.0906
X6.2827Y-3.0906
X8.8748Y-5.3346
X9.2748Y-5.3346
X11.8669Y-3.0906
X12.2669Y-3.0906
X2.8906Y-3.0906
X3.2906Y-3.0906
X10.3709Y-3.0906
X10.7709Y-3.0906
T3
X5.2402Y-5.6102
X6.1772Y-5.6102
X3.8327Y-5.6102
X8.3327Y-5.6102
X6.7362Y-5.6102
X7.6732Y-5.6102
T4
X6.8307Y-4.5866
X8.3268Y-3.8386
X2.3425Y-3.0906
X4.5866Y-4.5866
X4.5866Y-3.8386
X10.5709Y-2.3425
X5.3346Y-5.3346
X3.0906Y-3.8386
X6.7362Y-5.0102
X7.2047Y-5.3346
X7.6732Y-5.0102
X7.5787Y-3.0906
X3.0906Y-5.3346
X5.3346Y-3.8386
X5.3346Y-3.0906
X8.3268Y-5.3346
X11.3189Y-3.0906
X11.3189Y-2.3425
X9.8228Y-3.8386
X9.0748Y-2.3425
X3.8386Y-2.3425
X9.8228Y-4.5866
X7.5787Y-4.5866
X6.0827Y-2.3425
X9.8228Y-5.3346
X6.0827Y-4.5866
X3.8386Y-3.8386
X7.5787Y-2.3425
X3.8386Y-4.5866
X11.3189Y-3.8386
X9.0748Y-3.0906
X12.0669Y-5.3346
X3.8386Y-5.3346
X12.0669Y-3.8386
X2.3425Y-2.3425
X6.8307Y-3.0906
X10.5709Y-5.3346
X12.0669Y-4.5866
X2.3425Y-3.8386
X3.8386Y-3.0906
X9.8228Y-3.0906
X12.0669Y-2.3425
X9.0748Y-3.8386
X8.3268Y-2.3425
X7.5787Y-5.3346
X2.3425Y-5.3346
X5.2402Y-5.0102
X5.7087Y-5.3346
X6.1772Y-5.0102
X9.0748Y-4.5866
X4.5866Y-2.3425
X10.5709Y-4.5866
X3.8327Y-5.0102
X6.0827Y-5.3346
X8.3327Y-5.0102
X5.3346Y-4.5866
X6.0827Y-3.8386
X6.8307Y-2.3425
X6.8307Y-3.8386
X3.0906Y-4.5866
X7.5787Y-3.8386
X3.0906Y-2.3425
X8.3268Y-3.0906
X11.3189Y-5.3346
X4.5866Y-5.3346
X10.5709Y-3.8386
X6.0827Y-3.0906
X9.0748Y-5.3346
X12.0669Y-3.0906
X3.0906Y-3.0906
X10.5709Y-3.0906
X9.8228Y-2.3425
X2.3425Y-4.5866
X4.5866Y-3.0906
X6.8307Y-5.3346
X11.3189Y-4.5866
X8.3268Y-4.5866
X5.3346Y-2.3425
T0
M30
