M48
; DRILL file {KiCad (5.1.4)-1} date 11/3/2019 9:16:31 PM
; FORMAT={-:-/ absolute / inch / decimal}
; #@! TF.CreationDate,2019-11-03T21:16:31+08:00
; #@! TF.GenerationSoftware,Kicad,Pcbnew,(5.1.4)-1
; #@! TF.FileFunction,Plated,1,2,PTH
FMAT,2
INCH
T1C0.0157
T2C0.0236
T3C0.0394
T4C0.0591
T5C0.0866
%
G90
G05
T1
X10.0472Y-3.2215
X10.0659Y-2.4921
X10.0659Y-2.9222
X10.1033Y-3.9695
X10.1033Y-4.0089
X10.3465Y-3.2215
X10.3465Y-3.6142
X10.3839Y-4.0069
X10.627Y-4.0069
X10.6831Y-3.9134
X10.7205Y-2.5295
X10.7953Y-2.436
X10.812Y-4.7175
X10.814Y-3.2215
X10.8888Y-2.1929
X10.8888Y-2.249
X10.9075Y-2.436
X10.9075Y-4.5118
X10.9616Y-4.7175
X10.9823Y-2.436
X11.001Y-2.1929
X11.001Y-2.249
X11.0384Y-2.2864
X11.0758Y-3.2215
X11.0945Y-2.436
X11.1693Y-2.5295
X11.2441Y-3.5207
X11.2628Y-4.0069
X11.2815Y-3.9695
X11.3376Y-4.3061
X11.5433Y-3.7451
X11.5994Y-4.3996
X11.6181Y-4.9793
X11.6181Y-4.1939
X11.6185Y-4.0585
X11.6186Y-4.154
X11.8051Y-3.4646
T3
X11.6929Y-5.1346
X11.6929Y-5.2346
X11.6929Y-5.3346
X11.6929Y-5.4346
X11.8669Y-4.9606
X11.9669Y-4.9606
X12.0669Y-4.9606
X12.1669Y-4.9606
X12.2669Y-4.9606
T4
X3.6886Y-2.2425
X3.9386Y-2.1425
X9.6728Y-4.4866
X9.9228Y-4.3866
X7.4287Y-4.4866
X7.6787Y-4.3866
X5.9327Y-2.2425
X6.1827Y-2.1425
X9.6728Y-5.2346
X9.9228Y-5.1346
X5.9327Y-4.4866
X6.1827Y-4.3866
X3.6886Y-3.7386
X3.9386Y-3.6386
X7.4287Y-2.2425
X7.6787Y-2.1425
X3.6886Y-4.4866
X3.9386Y-4.3866
X11.1689Y-3.7386
X11.4189Y-3.6386
X8.9248Y-2.9906
X9.1748Y-2.8906
X11.9169Y-5.2346
X12.1669Y-5.1346
X3.6886Y-5.2346
X3.9386Y-5.1346
X11.9169Y-3.7386
X12.1669Y-3.6386
X2.1925Y-2.2425
X2.4425Y-2.1425
X6.6807Y-2.9906
X6.9307Y-2.8906
X10.4209Y-5.2346
X10.6709Y-5.1346
X11.9169Y-4.4866
X12.1669Y-4.3866
X2.1925Y-3.7386
X2.4425Y-3.6386
X3.6886Y-2.9906
X3.9386Y-2.8906
X9.6728Y-2.9906
X9.9228Y-2.8906
X11.9169Y-2.2425
X12.1669Y-2.1425
X8.9248Y-3.7386
X9.1748Y-3.6386
X8.1768Y-2.2425
X8.4268Y-2.1425
X7.4287Y-5.2346
X7.6787Y-5.1346
X2.1925Y-5.2346
X2.4425Y-5.1346
X5.5587Y-5.2346
X5.8087Y-5.1346
X8.9248Y-4.4866
X9.1748Y-4.3866
X4.4366Y-2.2425
X4.6866Y-2.1425
X10.4209Y-4.4866
X10.6709Y-4.3866
X5.9327Y-5.2346
X6.1827Y-5.1346
X5.1846Y-4.4866
X5.4346Y-4.3866
X5.9327Y-3.7386
X6.1827Y-3.6386
X6.6807Y-2.2425
X6.9307Y-2.1425
X6.6807Y-3.7386
X6.9307Y-3.6386
X2.9406Y-4.4866
X3.1906Y-4.3866
X7.4287Y-3.7386
X7.6787Y-3.6386
X2.9406Y-2.2425
X3.1906Y-2.1425
X8.1768Y-2.9906
X8.4268Y-2.8906
X11.1689Y-5.2346
X11.4189Y-5.1346
X4.4366Y-5.2346
X4.6866Y-5.1346
X10.4209Y-3.7386
X10.6709Y-3.6386
X5.9327Y-2.9906
X6.1827Y-2.8906
X8.9248Y-5.2346
X9.1748Y-5.1346
X11.9169Y-2.9906
X12.1669Y-2.8906
X2.9406Y-2.9906
X3.1906Y-2.8906
X10.4209Y-2.9906
X10.6709Y-2.8906
X9.6728Y-2.2425
X9.9228Y-2.1425
X2.1925Y-4.4866
X2.4425Y-4.3866
X4.4366Y-2.9906
X4.6866Y-2.8906
X6.6807Y-5.2346
X6.9307Y-5.1346
X11.1689Y-4.4866
X11.4189Y-4.3866
X8.1768Y-4.4866
X8.4268Y-4.3866
X5.1846Y-2.2425
X5.4346Y-2.1425
X6.6807Y-4.4866
X6.9307Y-4.3866
X8.1768Y-3.7386
X8.4268Y-3.6386
X2.1925Y-2.9906
X2.4425Y-2.8906
X4.4366Y-4.4866
X4.6866Y-4.3866
X4.4366Y-3.7386
X4.6866Y-3.6386
X10.4209Y-2.2425
X10.6709Y-2.1425
X5.1846Y-5.2346
X5.4346Y-5.1346
X2.9406Y-3.7386
X3.1906Y-3.6386
X7.0547Y-5.2346
X7.3047Y-5.1346
X7.4287Y-2.9906
X7.6787Y-2.8906
X2.9406Y-5.2346
X3.1906Y-5.1346
X5.1846Y-3.7386
X5.4346Y-3.6386
X5.1846Y-2.9906
X5.4346Y-2.8906
X8.1768Y-5.2346
X8.4268Y-5.1346
X11.1689Y-2.9906
X11.4189Y-2.8906
X11.1689Y-2.2425
X11.4189Y-2.1425
X9.6728Y-3.7386
X9.9228Y-3.6386
X8.9248Y-2.2425
X9.1748Y-2.1425
T5
X4.9606Y-5.9252
X4.9606Y-1.752
X9.4488Y-1.752
X1.752Y-5.9252
X9.4488Y-5.9252
X1.752Y-1.752
X12.6575Y-1.752
X12.6575Y-5.9252
T2
G00X10.7748Y-1.8622
M15
G01X10.7748Y-1.8858
M16
G05
G00X10.7748Y-2.0169
M15
G01X10.7748Y-2.0602
M16
G05
G00X11.115Y-1.8622
M15
G01X11.115Y-1.8858
M16
G05
G00X11.115Y-2.0169
M15
G01X11.115Y-2.0602
M16
G05
T0
M30
