M48
; DRILL file {KiCad (5.1.2)-1} date 7/7/2019 10:25:12 PM
; FORMAT={-:-/ absolute / inch / decimal}
; #@! TF.CreationDate,2019-07-07T22:25:12+08:00
; #@! TF.GenerationSoftware,Kicad,Pcbnew,(5.1.2)-1
; #@! TF.FileFunction,Plated,1,2,PTH
FMAT,2
INCH
T1C0.0157
T2C0.0236
T3C0.0394
T4C0.0866
%
G90
G05
T1
X2.6043Y-2.2303
X2.6043Y-2.9783
X2.6043Y-3.5394
X2.6043Y-4.2874
X2.6043Y-5.0354
X3.3524Y-2.2303
X3.3524Y-2.9783
X3.3524Y-3.5394
X3.3524Y-4.2874
X3.3524Y-5.0354
X4.1004Y-2.2303
X4.1004Y-2.9783
X4.1004Y-3.5394
X4.1004Y-4.2874
X4.1004Y-5.0354
X4.8484Y-2.2303
X4.8484Y-2.9783
X4.8484Y-3.5394
X4.8484Y-4.2874
X4.8484Y-5.0354
X5.5965Y-2.2303
X5.5965Y-2.9783
X5.5965Y-3.5394
X5.5965Y-4.2874
X5.5965Y-5.0354
X6.3445Y-2.2244
X6.3445Y-2.9783
X6.3445Y-3.5394
X6.3445Y-4.2874
X6.3445Y-5.0354
X6.3819Y-3.2589
X6.3819Y-3.9134
X6.4193Y-2.6604
X6.4193Y-3.8947
X6.6998Y-4.1614
X6.7559Y-4.1614
X6.8307Y-3.9646
X6.8681Y-2.623
X6.8681Y-2.7913
X6.8681Y-4.811
X6.9616Y-3.8199
X7.0925Y-2.2677
X7.0925Y-2.9783
X7.0925Y-3.5394
X7.0925Y-4.4744
X7.0925Y-5.0354
X7.1299Y-3.2028
X7.158Y-2.3425
X7.2047Y-2.623
X7.2047Y-2.81
X7.2047Y-4.437
X7.2515Y-2.3425
X7.2795Y-3.2028
X7.2982Y-3.4646
X7.2982Y-3.8386
X7.3169Y-2.2677
X7.3543Y-2.6417
X7.3917Y-2.249
X7.4104Y-3.4272
X7.4104Y-3.502
X7.4291Y-2.8474
X7.4478Y-2.0433
X7.4852Y-4.3809
X7.5226Y-3.7264
X7.5787Y-3.5581
X7.6255Y-4.2313
X7.6486Y-3.9272
X7.7047Y-3.9646
X7.7096Y-4.5866
X7.7195Y-5.4931
X7.747Y-3.5581
X7.8406Y-2.2677
X7.8406Y-2.6604
X7.8406Y-2.9783
X7.8406Y-3.7264
X7.8406Y-4.4744
X7.8406Y-5.0354
X7.8967Y-2.2677
X7.9154Y-3.5955
X7.9154Y-4.1752
X7.9341Y-4.8671
X7.9528Y-3.4272
X7.9902Y-3.4646
X8.0276Y-2.062
X8.0276Y-3.3524
X8.0276Y-3.502
X8.1024Y-4.1752
X8.5886Y-2.2303
X8.5886Y-2.9783
X8.5886Y-3.7264
X8.5886Y-4.4744
X8.5886Y-5.0354
X9.3366Y-2.2303
X9.3366Y-2.9783
X9.3366Y-3.5394
X9.3366Y-4.2874
X9.3366Y-5.0354
X10.0846Y-2.2303
X10.0846Y-2.9783
X10.0846Y-3.5394
X10.0846Y-4.2874
X10.0846Y-5.0354
X10.8327Y-2.2303
X10.8327Y-2.9783
X10.8327Y-3.5394
X10.8327Y-4.2874
X10.8327Y-5.0354
X11.5807Y-2.2303
X11.5807Y-2.9783
X11.5807Y-3.5394
X11.5807Y-4.2874
X11.5807Y-5.0354
X12.3287Y-2.2303
X12.3287Y-2.9783
X12.3287Y-3.5394
X12.3287Y-4.2874
X12.3287Y-5.0354
T3
X6.4559Y-2.0246
X6.5559Y-2.0246
X6.6559Y-2.0246
X6.7559Y-2.0246
X6.625Y-4.9606
X8.4008Y-4.2126
X8.5008Y-4.2126
X8.6008Y-4.2126
X8.7008Y-4.2126
X6.625Y-3.4646
X6.725Y-3.4646
X8.2008Y-3.4646
X8.3008Y-3.4646
X8.4008Y-3.4646
X8.5008Y-3.4646
X8.6008Y-3.4646
X8.7008Y-3.4646
T4
X5.7087Y-4.9606
X8.7008Y-4.9606
X11.6929Y-2.7165
X2.7165Y-2.7165
X5.7087Y-2.7165
X8.7008Y-2.7165
X11.6929Y-4.9606
X2.7165Y-4.9606
T2
G00X7.0346Y-1.9606
M15
G01X7.0346Y-1.9843
M16
G05
G00X7.0346Y-2.1154
M15
G01X7.0346Y-2.1587
M16
G05
G00X7.3748Y-1.9606
M15
G01X7.3748Y-1.9843
M16
G05
G00X7.3748Y-2.1154
M15
G01X7.3748Y-2.1587
M16
G05
T0
M30
